<?xml version="1.0" encoding="iso-8859-1"?>
<!-- Generator: Adobe Illustrator 19.0.0, SVG Export Plug-In . SVG Version: 6.00 Build 0)  -->
<svg version="1.1" id="Layer_1" xmlns="http://www.w3.org/2000/svg" xmlns:xlink="http://www.w3.org/1999/xlink" x="0px" y="0px"
	 viewBox="0 0 512 512" style="enable-background:new 0 0 512 512;" xml:space="preserve">
<circle style="fill:#C2D5D8;" cx="256" cy="256" r="256"/>
<path style="fill:#E6E6E6;" d="M144.8,220c-6.4,0-12.8,0-12.8,0s-6.4,0-12.8,0c0,20,0,72-25.596,120c19.204,0,38.404,0,38.404,0
	s19.2,0,38.404,0C144.8,292,144.8,240,144.8,220z"/>
<path style="fill:#CCCCCC;" d="M144.8,220c-3.088,0-6.164,0-8.536,0c0,20,0,72,25.596,120c2.804,0,5.664,0,8.536,0
	C144.8,292,144.8,240,144.8,220z"/>
<path style="fill:#E6E6E6;" d="M161.868,201.868c0,16.5-13.36,29.864-29.868,29.864c-16.492,0-29.868-13.364-29.868-29.864
	S115.508,172,132,172C148.508,172,161.868,185.364,161.868,201.868z"/>
<path style="fill:#CCCCCC;" d="M132,172c-1.452,0-2.868,0.14-4.264,0.336c14.476,2.076,25.596,14.48,25.596,29.528
	s-11.12,27.452-25.596,29.528c1.404,0.2,2.812,0.336,4.264,0.336c16.508,0,29.868-13.364,29.868-29.864S148.508,172,132,172z"/>
<path style="fill:#CC584C;" d="M152,228c0,2.208-1.788,4-4,4h-32c-2.212,0-4-1.792-4-4l0,0c0-2.208,1.788-4,4-4h32
	C150.212,224,152,225.792,152,228L152,228z"/>
<path style="fill:#263740;" d="M156,236c0,2.208-1.788,4-4,4h-40c-2.212,0-4-1.792-4-4l0,0c0-2.208,1.788-4,4-4h40
	C154.212,232,156,233.792,156,236L156,236z"/>
<path style="fill:#1E2C33;" d="M152,232h-8c2.212,0,4,1.792,4,4s-1.788,4-4,4h8c2.212,0,4-1.792,4-4S154.212,232,152,232z"/>
<path style="fill:#263740;" d="M176,344c0,2.208-1.788,4-4,4H92c-2.212,0-4-1.792-4-4l0,0c0-2.208,1.788-4,4-4h80
	C174.212,340,176,341.792,176,344L176,344z"/>
<path style="fill:#1E2C33;" d="M172.532,340H164c2.344,0,4.264,1.652,4.264,4s-1.92,4-4.264,4h8.532c2.352,0,4.268-1.652,4.268-4
	S174.884,340,172.532,340z"/>
<path style="fill:#CC584C;" d="M176,352c0,2.208-1.788,4-4,4H92c-2.212,0-4-1.792-4-4l0,0c0-2.208,1.788-4,4-4h80
	C174.212,348,176,349.792,176,352L176,352z"/>
<path style="fill:#263740;" d="M184,360c0,2.208-1.788,4-4,4H84c-2.212,0-4-1.792-4-4l0,0c0-2.208,1.788-4,4-4h96
	C182.212,356,184,357.792,184,360L184,360z"/>
<path style="fill:#1E2C33;" d="M180,356h-8c2.212,0,4,1.792,4,4s-1.788,4-4,4h8c2.212,0,4-1.792,4-4S182.212,356,180,356z"/>
<g>
	<path style="fill:#B34D43;" d="M172.532,348H164c2.344,0,4.264,1.652,4.264,4s-1.92,4-4.264,4h8.532c2.352,0,4.268-1.652,4.268-4
		S174.884,348,172.532,348z"/>
	<path style="fill:#B34D43;" d="M146.928,224H138.4c2.352,0,4.268,1.652,4.268,4s-1.916,4-4.268,4h8.54c2.344,0,4.26-1.652,4.26-4
		S149.272,224,146.928,224z"/>
</g>
<path style="fill:#99602E;" d="M47.184,404c46.38,65.316,122.568,108,208.76,108c0.076,0,0.14,0,0.212,0
	c86.156,0,162.3-42.712,208.66-108H47.184z"/>
<path style="fill:#8C582A;" d="M59.464,420h393.072c4.308-5.156,8.388-10.508,12.28-16H47.184
	C51.084,409.492,55.156,414.844,59.464,420z"/>
<path style="fill:#242424;" d="M456,404v-32c0-4.4-3.6-8-8-8H64c-4.4,0-8,3.6-8,8v32H456z"/>
<path style="fill:#1A1A1A;" d="M448,364h-16c4.4,0,8,3.6,8,8v32h16v-32C456,367.6,452.4,364,448,364z"/>
<path style="fill:#E6E6E6;" d="M366.252,180c-7.96,0-15.916,0-15.916,0s-7.96,0-15.916,0c0,24,0,92-31.836,148
	c23.876,0,47.752,0,47.752,0s23.876,0,47.752,0C366.252,272,366.252,204,366.252,180z"/>
<path style="fill:#CCCCCC;" d="M366.252,180c-3.844,0-7.672,0-10.612,0c0,24,0,92,31.836,148c3.488,0,7.048,0,10.612,0
	C366.252,272,366.252,204,366.252,180z"/>
<path style="fill:#263740;" d="M408,334.692c0,2.932-2.376,5.308-5.304,5.308H301.304c-2.928,0-5.304-2.376-5.304-5.308v-1.388
	c0-2.932,2.376-5.308,5.304-5.308h101.392c2.928,0,5.304,2.376,5.304,5.308L408,334.692L408,334.692z"/>
<path style="fill:#1E2C33;" d="M402.696,328h-8c2.928,0,5.304,2.376,5.304,5.308v1.388c0,2.932-2.376,5.308-5.304,5.308h8
	c2.928,0,5.304-2.376,5.304-5.308v-1.388C408,330.376,405.624,328,402.696,328z"/>
<path style="fill:#CC584C;" d="M408,346.692c0,2.932-2.376,5.308-5.304,5.308H301.304c-2.928,0-5.304-2.376-5.304-5.308v-1.388
	c0-2.932,2.376-5.308,5.304-5.308h101.392c2.928,0,5.304,2.376,5.304,5.308L408,346.692L408,346.692z"/>
<path style="fill:#263740;" d="M416,358.692c0,2.932-2.376,5.308-5.304,5.308H289.304c-2.928,0-5.304-2.376-5.304-5.308v-1.388
	c0-2.932,2.376-5.308,5.304-5.308h121.392c2.928,0,5.304,2.376,5.304,5.308L416,358.692L416,358.692z"/>
<polygon style="fill:#E6E6E6;" points="376.856,208 323.796,208 329.1,184 371.556,184 "/>
<path style="fill:#1E2C33;" d="M410.696,352h-8c2.928,0,5.304,2.376,5.304,5.308v1.388c0,2.932-2.376,5.308-5.304,5.308h8
	c2.928,0,5.304-2.376,5.304-5.308v-1.388C416,354.376,413.624,352,410.696,352z"/>
<path style="fill:#BF5347;" d="M402.696,340h-8c2.928,0,5.304,2.376,5.304,5.308v1.388c0,2.932-2.376,5.308-5.304,5.308h8
	c2.928,0,5.304-2.376,5.304-5.308v-1.388C408,342.376,405.624,340,402.696,340z"/>
<polygon style="fill:#CCCCCC;" points="371.556,184 360.936,184 366.252,208 376.856,208 "/>
<path style="fill:#263740;" d="M387.468,168.98c0,20.524-16.612,21.224-37.14,21.224c-20.524,0-37.144-0.7-37.144-21.224
	s13.26-39.796,37.144-53.064C374.204,129.184,387.468,148.456,387.468,168.98z"/>
<path style="fill:#1E2C33;" d="M350.328,115.916c-1.84,1.024-3.592,2.092-5.308,3.184c20.516,13.072,31.836,30.936,31.836,49.88
	c0,18.716-13.828,20.94-31.836,21.188c1.74,0.024,3.5,0.036,5.308,0.036c20.528,0,37.14-0.7,37.14-21.224
	S374.204,129.184,350.328,115.916z"/>
<circle style="fill:#CC584C;" cx="350.32" cy="110.612" r="10.612"/>
<path style="fill:#BF5347;" d="M350.328,100c-0.452,0-0.892,0.08-1.328,0.132c5.236,0.66,9.28,5.076,9.28,10.48
	s-4.056,9.82-9.28,10.48c0.436,0.056,0.876,0.132,1.328,0.132c5.864,0,10.608-4.752,10.608-10.612S356.192,100,350.328,100z"/>
<path style="fill:#CC584C;" d="M376,217.308c0-2.932-2.376-5.308-5.304-5.308h-41.392c-2.928,0-5.304,2.376-5.304,5.308v1.388
	c0,2.932,2.376,5.308,5.304,5.308h41.392c2.928,0,5.304-2.376,5.304-5.308L376,217.308L376,217.308z"/>
<path style="fill:#BF5347;" d="M370.696,212h-8c2.928,0,5.304,2.376,5.304,5.308v1.388c0,2.932-2.376,5.308-5.304,5.308h8
	c2.928,0,5.304-2.376,5.304-5.308v-1.388C376,214.376,373.624,212,370.696,212z"/>
<path style="fill:#263740;" d="M380,205.308c0-2.932-2.376-5.308-5.308-5.308h-49.384c-2.932,0-5.308,2.376-5.308,5.308v1.388
	c0,2.932,2.376,5.308,5.308,5.308h49.384c2.932,0,5.308-2.376,5.308-5.308L380,205.308L380,205.308z"/>
<path style="fill:#1E2C33;" d="M374.692,200h-8c2.932,0,5.308,2.376,5.308,5.308v1.388c0,2.932-2.376,5.308-5.308,5.308h8
	c2.932,0,5.308-2.376,5.308-5.308v-1.388C380,202.376,377.624,200,374.692,200z"/>
<g>
</g>
<g>
</g>
<g>
</g>
<g>
</g>
<g>
</g>
<g>
</g>
<g>
</g>
<g>
</g>
<g>
</g>
<g>
</g>
<g>
</g>
<g>
</g>
<g>
</g>
<g>
</g>
<g>
</g>
</svg>
