<?xml version="1.0" encoding="iso-8859-1"?>
<!-- Generator: Adobe Illustrator 16.0.0, SVG Export Plug-In . SVG Version: 6.00 Build 0)  -->
<!DOCTYPE svg PUBLIC "-//W3C//DTD SVG 1.1//EN" "http://www.w3.org/Graphics/SVG/1.1/DTD/svg11.dtd">
<svg xmlns="http://www.w3.org/2000/svg" xmlns:xlink="http://www.w3.org/1999/xlink" version="1.1" id="Capa_1" x="0px" y="0px" width="512px" height="512px" viewBox="0 0 535.5 535.5" style="enable-background:new 0 0 535.5 535.5;" xml:space="preserve">
<g>
	<g>
		<polygon points="200.812,221.85 449.438,114.75 181.688,0 181.688,124.312 181.688,459 200.812,459   " fill="#FFFFFF"/>
		<path d="M267.75,363.375c-17.212,0-32.513,0-47.812,1.912v61.2c11.475,5.737,19.125,13.388,19.125,22.95    c0,15.3-21.038,28.688-47.812,28.688s-47.812-13.388-47.812-28.688c0-9.562,7.65-17.213,19.125-22.95v-53.55    c-68.85,15.3-114.75,42.075-114.75,76.5c0,47.812,97.538,86.062,219.938,86.062c122.4,0,219.938-38.25,219.938-86.062    S390.15,363.375,267.75,363.375z M344.25,459c-15.3,0-28.688-7.65-28.688-19.125s13.388-19.125,28.688-19.125    s28.688,7.65,28.688,19.125S359.55,459,344.25,459z" fill="#FFFFFF"/>
	</g>
</g>
<g>
</g>
<g>
</g>
<g>
</g>
<g>
</g>
<g>
</g>
<g>
</g>
<g>
</g>
<g>
</g>
<g>
</g>
<g>
</g>
<g>
</g>
<g>
</g>
<g>
</g>
<g>
</g>
<g>
</g>
</svg>
