<?xml version="1.0" encoding="iso-8859-1"?>
<!-- Generator: Adobe Illustrator 18.1.1, SVG Export Plug-In . SVG Version: 6.00 Build 0)  -->
<svg xmlns="http://www.w3.org/2000/svg" xmlns:xlink="http://www.w3.org/1999/xlink" version="1.1" id="Capa_1" x="0px" y="0px" viewBox="0 0 25.917 25.917" style="enable-background:new 0 0 25.917 25.917;" xml:space="preserve" width="512px" height="512px">
<g>
	<path d="M9.547,20.221c0.118,0.119,0.118,0.31,0,0.428l-0.642,0.643c-0.118,0.117-0.311,0.117-0.428,0   L4.625,17.44c-0.119-0.119-0.119-0.311,0-0.429l0.642-0.642c0.118-0.119,0.31-0.119,0.428,0L9.547,20.221z M25.917,2.413v0.003   c0,0.256-0.098,0.511-0.293,0.706l-0.421,0.421l0.164,0.164c0.205,0.206,0.205,0.538,0,0.744c-0.102,0.102-0.237,0.153-0.372,0.153   s-0.269-0.05-0.372-0.153l-0.164-0.164l-0.256,0.256l0.164,0.164c0.205,0.206,0.205,0.538,0,0.744   c-0.102,0.102-0.237,0.153-0.372,0.153s-0.269-0.05-0.372-0.153l-0.164-0.164l-0.198,0.198c-0.259,0.259-0.622,0.329-0.952,0.245   l-4.357,4.357c1.146,1.31,2.575,3.602,1.088,5.774c-1.014,1.483-2.584,1.178-3.474,2.103c-1.001,1.042-0.2,3.903-2.817,6.52   c-0.985,0.985-2.11,1.433-3.301,1.433c-1.977,0-4.136-1.235-6.134-3.313c-3.332-3.203-4.498-6.82-1.881-9.436   C4.05,10.55,6.909,11.351,7.95,10.35c0.927-0.89,0.642-2.44,2.124-3.453c0.668-0.457,1.347-0.64,2.004-0.64   c1.479,0,2.849,0.921,3.752,1.71l4.358-4.358c-0.085-0.331-0.014-0.693,0.245-0.952l0.198-0.198l-0.164-0.164   c-0.205-0.206-0.205-0.538,0-0.744c0.205-0.205,0.539-0.205,0.744,0l0.164,0.164l0.256-0.256l-0.164-0.164   c-0.205-0.206-0.205-0.538,0-0.744c0.205-0.205,0.539-0.205,0.744,0l0.164,0.164l0.421-0.421c0.195-0.195,0.451-0.293,0.707-0.293   h0.003c0.256,0,0.511,0.098,0.705,0.293l1.414,1.414C25.819,1.902,25.917,2.157,25.917,2.413z M16.96,11.079l-3.359,3.359   c0.007,0.073,0.022,0.144,0.022,0.219c0,1.306-1.058,2.364-2.364,2.364s-2.364-1.058-2.364-2.364s1.058-2.364,2.364-2.364   c0.076,0,0.148,0.015,0.223,0.022l3.356-3.357c-0.777-0.662-1.799-1.302-2.76-1.302c-0.428,0-0.825,0.129-1.214,0.395   c-0.454,0.31-0.601,0.681-0.841,1.363c-0.209,0.595-0.47,1.336-1.104,1.944c-0.7,0.674-1.617,0.84-2.588,1.016   c-1.218,0.221-2.598,0.471-3.908,1.782c-0.697,0.699-1.032,1.465-1.023,2.346c0.015,1.51,1.039,3.319,2.884,5.091   c0.014,0.013,0.026,0.026,0.039,0.04c1.788,1.86,3.608,2.884,5.125,2.884c0.867,0,1.623-0.335,2.311-1.023   c1.31-1.309,1.56-2.691,1.782-3.91c0.176-0.971,0.342-1.888,1.016-2.589c0.614-0.639,1.364-0.895,1.966-1.1   c0.684-0.233,1.056-0.376,1.362-0.823C18.826,13.697,17.827,12.086,16.96,11.079z M21.652,3.689l2-2   c0.117-0.117,0.117-0.307,0-0.424s-0.307-0.117-0.424,0l-2,2c-0.117,0.117-0.117,0.307,0,0.424   c0.059,0.059,0.135,0.088,0.212,0.088C21.518,3.777,21.594,3.748,21.652,3.689z M24.652,2.265c-0.117-0.117-0.307-0.117-0.424,0   l-2,2c-0.117,0.117-0.117,0.307,0,0.424c0.059,0.059,0.135,0.088,0.212,0.088s0.153-0.029,0.212-0.088l2-2   C24.77,2.572,24.769,2.382,24.652,2.265z" fill="#FFFFFF"/>
</g>
<g>
</g>
<g>
</g>
<g>
</g>
<g>
</g>
<g>
</g>
<g>
</g>
<g>
</g>
<g>
</g>
<g>
</g>
<g>
</g>
<g>
</g>
<g>
</g>
<g>
</g>
<g>
</g>
<g>
</g>
</svg>
