<?xml version="1.0" encoding="iso-8859-1"?>
<!-- Generator: Adobe Illustrator 16.0.0, SVG Export Plug-In . SVG Version: 6.00 Build 0)  -->
<!DOCTYPE svg PUBLIC "-//W3C//DTD SVG 1.1//EN" "http://www.w3.org/Graphics/SVG/1.1/DTD/svg11.dtd">
<svg xmlns="http://www.w3.org/2000/svg" xmlns:xlink="http://www.w3.org/1999/xlink" version="1.1" id="Capa_1" x="0px" y="0px" width="512px" height="512px" viewBox="0 0 44.116 44.117" style="enable-background:new 0 0 44.116 44.117;" xml:space="preserve">
<g>
	<g>
		<path d="M19.328,24.269c-1.425-0.016-2.565-1.182-2.554-2.605c0.015-1.424,1.182-2.567,2.604-2.551    c0.728,0.006,1.38,0.313,1.844,0.805l0.638,0.005l0.071-7.009l-6.146-0.062l-0.01,0.908c0.479,0.477,0.773,1.134,0.768,1.859    c-0.015,1.424-1.182,2.566-2.604,2.553c-1.424-0.016-2.565-1.183-2.551-2.604c0.008-0.729,0.314-1.379,0.805-1.842l0.01-0.911    l-6.029-0.062L6.107,19.43l-0.944-0.011c-0.537-0.565-1.295-0.924-2.139-0.934C1.371,18.471,0.016,19.797,0,21.449    c-0.018,1.652,1.309,3.005,2.961,3.021c0.845,0.012,1.607-0.334,2.159-0.889l0.942,0.008l-0.074,7.455l6.027,0.061l0.012-1.152    c-0.479-0.473-0.773-1.131-0.768-1.858c0.016-1.422,1.181-2.562,2.604-2.549c1.424,0.017,2.565,1.18,2.552,2.604    c-0.008,0.727-0.315,1.379-0.806,1.844l-0.01,1.149l6.146,0.062l0.079-7.696l-0.639-0.006    C20.714,23.982,20.054,24.277,19.328,24.269z" fill="#FFFFFF"/>
		<path d="M41.153,19.646c-0.845-0.014-1.607,0.332-2.158,0.889l-0.943-0.01l0.006-0.444h0.021l0.071-7.009l-5.875-0.063v0.004    L32.1,13.011l-0.014,1.152c0.248,0.246,0.444,0.543,0.577,0.871c0.059,0.237,0.103,0.483,0.1,0.744    c-0.016,1.424-1.183,2.564-2.604,2.553c-1.036-0.012-1.916-0.635-2.317-1.521c-0.089-0.267-0.146-0.547-0.143-0.843    c0.008-0.727,0.315-1.379,0.805-1.844l0.014-1.152l-0.096-0.001l0,0l-6.027-0.062l0,0H22.37l-0.075,7.321l-1.328-0.009    c-0.397-0.424-0.959-0.691-1.586-0.691c-1.204,0-2.18,0.977-2.18,2.18s0.976,2.179,2.18,2.179c0.654,0,1.232-0.293,1.634-0.75    l1.27,0.008l-0.009,1.045h-0.021l-0.07,7.01h0.037l-0.001,0.16l6.016-0.102l0.013-1.15c-0.287-0.283-0.496-0.641-0.625-1.029    c-0.027-0.188-0.052-0.383-0.049-0.586c0.014-1.424,1.181-2.565,2.604-2.553c1.033,0.012,1.914,0.635,2.314,1.521    c0.089,0.269,0.146,0.547,0.146,0.842c-0.01,0.729-0.316,1.379-0.807,1.847l-0.013,1.149h0.095l0,0l6.027,0.063l0,0h0.021    l0.069-6.678l0.92,0.012c0.538,0.564,1.295,0.924,2.139,0.935c1.652,0.019,3.009-1.312,3.023-2.963    C44.132,21.014,42.807,19.66,41.153,19.646z" fill="#FFFFFF"/>
	</g>
</g>
<g>
</g>
<g>
</g>
<g>
</g>
<g>
</g>
<g>
</g>
<g>
</g>
<g>
</g>
<g>
</g>
<g>
</g>
<g>
</g>
<g>
</g>
<g>
</g>
<g>
</g>
<g>
</g>
<g>
</g>
</svg>
